<?xml version="1.0" encoding="iso-8859-1"?>
<!DOCTYPE svg PUBLIC "-//W3C//DTD SVG 1.1//EN" "http://www.w3.org/Graphics/SVG/1.1/DTD/svg11.dtd">
<svg 
 version="1.1" xmlns="http://www.w3.org/2000/svg" xmlns:xlink="http://www.w3.org/1999/xlink" x="0px" y="0px" width="512px"
	 height="512px" viewBox="0 0 512 512" style="enable-background:new 0 0 512 512;" xml:space="preserve"
><g id="afcae5a789ccd549f9c6e2a2f816fa40"><g></g><path style="display: inline;" d="M476.146,383.938L438.27,32.254C436.385,14.786,420.479,0.5,402.913,0.5H109.086
		c-17.566,0-33.471,14.286-35.355,31.754L35.854,383.938c-1.876,17.467,10.956,31.75,28.522,31.75h383.249
		C465.19,415.688,478.022,401.404,476.146,383.938z M454.923,393.556c-1.214,1.355-3.469,2.969-7.299,2.969H64.375
		c-3.83,0-6.085-1.613-7.298-2.969s-2.582-3.766-2.169-7.569l37.877-351.68c0.835-7.798,8.46-14.641,16.301-14.641h293.827
		c7.841,0,15.467,6.843,16.301,14.641l37.878,351.68C457.505,389.79,456.137,392.2,454.923,393.556z M447.624,433.267H64.375
		c-8.116,0-15.939-1.459-22.85-4.093l16.584,59.764c3.443,12.406,20.639,22.563,38.205,22.563h319.371
		c17.566,0,34.762-10.156,38.204-22.563l16.585-59.764C463.563,431.808,455.74,433.267,447.624,433.267z M112.279,486.304
		c-8.817,0-15.965-7.147-15.965-15.965c0-8.821,7.147-15.974,15.965-15.974c8.822,0,15.974,7.152,15.974,15.974
		C128.253,479.156,121.101,486.304,112.279,486.304z M176.157,486.304c-8.822,0-15.969-7.147-15.969-15.965
		c0-8.821,7.147-15.974,15.969-15.974s15.965,7.152,15.965,15.974C192.123,479.156,184.979,486.304,176.157,486.304z
		 M255.983,92.998l115.784,115.491h-74.868l2.995,114.699h-87.83l2.995-114.699h-74.825L255.983,92.998"></path></g></svg>